<svg width="79" height="77" viewBox="0 0 79 77" fill="none" xmlns="http://www.w3.org/2000/svg">
<path d="M24.8694 32.5628L50.1847 1.51445C85.9168 6.27864 71.3859 25.3537 58.4923 32.7572C68.4973 35.6002 81.9722 38.7875 76.6818 59.7019C71.9747 78.3105 30.0388 79.3341 5.58019 72.7107L58.4923 32.7572L24.8694 32.5628Z" fill="#4A02F2"/>
<path d="M58.4923 32.7572L24.8694 32.5628L50.1847 1.51445C85.9168 6.27864 71.3859 25.3537 58.4923 32.7572ZM58.4923 32.7572L5.58019 72.7107C30.0388 79.3341 71.9747 78.3105 76.6818 59.7019C81.9722 38.7875 68.4973 35.6002 58.4923 32.7572Z" stroke="black"/>
<path d="M1.92455 42.0014L28.8832 1.39139L50.4587 1.51609L25.0884 32.6148L59.9227 31.6514L5.19503 73.0631L36.7603 40.7848L1.92455 42.0014Z" fill="#F7FE5E" stroke="black"/>
</svg>
